<?xml version="1.0" encoding="UTF-8" standalone="no"?>
<!-- Created with Inkscape (http://www.inkscape.org/) -->

<svg
   xmlns:dc="http://purl.org/dc/elements/1.1/"
   xmlns:cc="http://creativecommons.org/ns#"
   xmlns:rdf="http://www.w3.org/1999/02/22-rdf-syntax-ns#"
   xmlns:svg="http://www.w3.org/2000/svg"
   xmlns="http://www.w3.org/2000/svg"
   version="1.1"
   width="200"
   height="200"
   viewBox="0 0 200 200"
   id="svg3005"
   xml:space="preserve"><title
   id="title3025">EasyTrack</title><metadata
   id="metadata3023"><rdf:RDF><cc:Work
       rdf:about=""><dc:format>image/svg+xml</dc:format><dc:type
         rdf:resource="http://purl.org/dc/dcmitype/StillImage" /><dc:title>EasyTrack</dc:title></cc:Work></rdf:RDF></metadata><defs
   id="defs3021" />
<g
   id="Layer_10"
   style="display:none">
	<path
   d="m 0,0 v 160 l 100,40 100,-39.5 V 0 H 0 z M 180,140 100,170 20,140 V 40 l 80,40 80,-40 V 140 z M 100,60 20,20 h 160 l -80,40 z"
   id="path3008"
   style="fill:#939393;display:inline" />
</g>
<g
   id="Layer_2">
	<polygon
   points="190,10 190,160 200,160 200,0 0,0 0,160.25 10,160 10,10 "
   id="polygon3011"
   style="fill:#ffffff" />
</g>
<g
   id="Layer_4">
	<polygon
   points="99.667,189.213 3.84,150.496 0,160 85.985,194.74 100,200.403 113.682,194.875 200,160 196.066,150.265 "
   id="polygon3014"
   style="fill:#ffffff" />
</g>
<g
   id="Layer_5">
	<polygon
   points="99.667,42.81 3.84,4.093 0,13.597 85.985,48.337 100,54 113.682,48.472 200,13.597 196.066,3.861 "
   id="polygon3017"
   style="fill:#ffffff" />
</g>
</svg>