<?xml version="1.0" encoding="UTF-8" standalone="no"?>
<!-- Created with Inkscape (http://www.inkscape.org/) -->

<svg
   xmlns:dc="http://purl.org/dc/elements/1.1/"
   xmlns:cc="http://creativecommons.org/ns#"
   xmlns:rdf="http://www.w3.org/1999/02/22-rdf-syntax-ns#"
   xmlns:svg="http://www.w3.org/2000/svg"
   xmlns="http://www.w3.org/2000/svg"
   version="1.1"
   width="200"
   height="200"
   viewBox="-54.468 752.066 200 200"
   id="svg3004"
   xml:space="preserve"><title
   id="title3023">Twitter</title><metadata
   id="metadata3021"><rdf:RDF><cc:Work
       rdf:about=""><dc:format>image/svg+xml</dc:format><dc:type
         rdf:resource="http://purl.org/dc/dcmitype/StillImage" /><dc:title>Twitter</dc:title></cc:Work></rdf:RDF></metadata><defs
   id="defs3019" />
<g
   id="Twitter">
	<circle
   cx="46"
   cy="852.50201"
   r="90"
   id="circle3007"
   style="fill:#00aced" />
	<g
   transform="translate(1.856116,0)"
   id="Livello_x0020_1">
		<path
   d="m 110.144,822.502 c -4.421,1.953 -9.165,3.277 -14.142,3.869 5.083,-3.047 8.986,-7.885 10.813,-13.635 -4.763,2.83 -10.025,4.871 -15.629,5.984 -4.494,-4.785 -10.884,-7.777 -17.974,-7.777 -13.588,0 -24.616,11.039 -24.616,24.637 0,1.936 0.213,3.816 0.645,5.605 -20.463,-1.02 -38.6,-10.836 -50.736,-25.746 -2.112,3.641 -3.331,7.867 -3.331,12.383 0,8.545 4.351,16.09 10.957,20.496 -4.028,-0.125 -7.824,-1.238 -11.153,-3.082 0,0.107 0,0.199 0,0.305 0,11.932 8.485,21.895 19.746,24.152 -2.059,0.555 -4.242,0.859 -6.481,0.859 -1.593,0 -3.132,-0.16 -4.637,-0.447 3.134,9.783 12.228,16.912 22.988,17.109 -8.433,6.611 -19.031,10.553 -30.579,10.553 -1.986,0 -3.938,-0.123 -5.872,-0.34 10.886,6.99 23.829,11.074 37.739,11.074 45.274,0 70.033,-37.535 70.033,-70.094 0,-1.07 -0.018,-2.129 -0.071,-3.188 4.816,-3.473 8.988,-7.813 12.281,-12.754 l 0.019,0.037 z"
   id="path10"
   style="fill:#ffffff" />
	</g>
</g>
</svg>