<?xml version="1.0" encoding="utf-8"?>
<!-- Generator: Adobe Illustrator 16.0.0, SVG Export Plug-In . SVG Version: 6.00 Build 0)  -->
<!DOCTYPE svg PUBLIC "-//W3C//DTD SVG 1.1//EN" "http://www.w3.org/Graphics/SVG/1.1/DTD/svg11.dtd">
<svg version="1.1" xmlns="http://www.w3.org/2000/svg" xmlns:xlink="http://www.w3.org/1999/xlink" x="0px" y="0px" width="200px"
	 height="200px" viewBox="-274.468 752.066 200 200" enable-background="new -274.468 752.066 200 200" xml:space="preserve">
<g id="Twitter_circle">
	<circle fill="#00ACED" cx="-174.468" cy="852.066" r="90"/>
</g>
<g id="Twitter_logo" xmlns:dc="http://purl.org/dc/elements/1.1/" xmlns:cc="http://creativecommons.org/ns#" xmlns:rdf="http://www.w3.org/1999/02/22-rdf-syntax-ns#" xmlns:svg="http://www.w3.org/2000/svg" xmlns:sodipodi="http://sodipodi.sourceforge.net/DTD/sodipodi-0.dtd" xmlns:inkscape="http://www.inkscape.org/namespaces/inkscape" sodipodi:docname="AJAX.svg" inkscape:version="0.48.2 r9819">
	
		<sodipodi:namedview  inkscape:cy="92.200948" inkscape:cx="192.37936" inkscape:zoom="0.82136715" fit-margin-left="0" fit-margin-top="0" showgrid="false" guidetolerance="10" gridtolerance="10" pagecolor="#ffffff" borderopacity="1" bordercolor="#666666" objecttolerance="10" id="namedview12" inkscape:current-layer="Livello_x0020_1" inkscape:window-maximized="1" inkscape:window-y="-8" inkscape:window-x="-8" fit-margin-bottom="0" fit-margin-right="0" inkscape:window-height="1004" inkscape:pageshadow="2" inkscape:pageopacity="0" inkscape:window-width="1280">
		</sodipodi:namedview>
	<g id="Livello_x0020_1" transform="translate(1.856116,0)">
		<path id="path10" inkscape:connector-curvature="0" fill="#FFFFFF" d="M-111.324,819.066c-4.421,1.953-9.165,3.277-14.142,3.869
			c5.083-3.047,8.986-7.885,10.813-13.635c-4.763,2.83-10.025,4.871-15.629,5.984c-4.494-4.785-10.884-7.777-17.974-7.777
			c-13.588,0-24.616,11.039-24.616,24.637c0,1.936,0.213,3.816,0.645,5.605c-20.463-1.02-38.6-10.836-50.736-25.746
			c-2.112,3.641-3.331,7.867-3.331,12.383c0,8.545,4.351,16.09,10.957,20.496c-4.028-0.125-7.824-1.238-11.153-3.082
			c0,0.107,0,0.199,0,0.305c0,11.932,8.485,21.895,19.746,24.152c-2.059,0.555-4.242,0.859-6.481,0.859
			c-1.593,0-3.132-0.16-4.637-0.447c3.134,9.783,12.228,16.912,22.988,17.109c-8.433,6.611-19.031,10.553-30.579,10.553
			c-1.986,0-3.938-0.123-5.872-0.34c10.886,6.99,23.829,11.074,37.739,11.074c45.274,0,70.033-37.535,70.033-70.094
			c0-1.07-0.018-2.129-0.071-3.188c4.816-3.473,8.988-7.813,12.281-12.754L-111.324,819.066z"/>
	</g>
</g>
</svg>
